<svg width="58" height="58" viewBox="0 0 58 58" fill="none" xmlns="http://www.w3.org/2000/svg">
<path d="M50.6212 26.3105V47.9199C50.6212 47.9199 42.5176 53.3223 29.0118 53.3223C15.5059 53.3223 7.4024 47.9199 7.4024 47.9199V26.3105C7.4024 15.5059 12.8047 4.70117 29.0118 4.70117C45.2188 4.70117 50.6212 15.5059 50.6212 26.3105Z" fill="white"/>
<path d="M29.0662 45.3605C25.5546 45.3605 22.0431 45.0904 18.8017 44.8203C10.6982 44.01 4.75562 36.9869 4.75562 28.8834C4.75562 20.2396 12.0488 12.9465 20.6925 12.9465H37.4398C46.3537 12.9465 53.3767 20.2396 53.3767 28.8834C53.3767 36.9869 47.4341 43.7398 39.3306 44.8203C36.0892 45.0904 32.5777 45.3605 29.0662 45.3605Z" fill="#DBB46F"/>
<path d="M5.44414 50.5309L5.48472 50.5613L5.52994 50.5839C5.52983 50.5839 5.53326 50.5856 5.54172 50.5903C5.55045 50.5951 5.56193 50.6015 5.57675 50.61C5.60664 50.6271 5.64481 50.6493 5.69327 50.6777L5.72726 50.6976C5.81893 50.7512 5.93693 50.8202 6.07894 50.9017C6.40006 51.0859 6.84444 51.3338 7.40637 51.6234C8.53009 52.2024 10.1219 52.9468 12.1394 53.6819C16.1743 55.1523 21.9122 56.5859 29.0117 56.5859C36.1113 56.5859 41.8491 55.1523 45.884 53.6819C47.9015 52.9468 49.4934 52.2024 50.6171 51.6234C51.179 51.3338 51.6234 51.0859 51.9445 50.9017C52.0864 50.8203 52.2043 50.7513 52.296 50.6977L52.3302 50.6777C52.3786 50.6493 52.4168 50.6271 52.4467 50.61C52.4615 50.6015 52.473 50.5951 52.4817 50.5903C52.49 50.5857 52.4935 50.5839 52.4935 50.5839L52.5387 50.5613L52.5793 50.5309L53.6598 49.7205L53.8848 49.5518V49.2705V26.3105C53.8848 18.6328 51.5517 12.3996 47.2372 8.08506C42.9227 3.77052 36.6895 1.4375 29.0117 1.4375C21.334 1.4375 15.1008 3.77052 10.7862 8.08506C6.47169 12.3996 4.13867 18.6328 4.13867 26.3105V49.2705V49.5518L4.36367 49.7205L5.44414 50.5309ZM29.0117 50.0586C20.0214 50.0586 13.5084 47.3375 10.666 45.9497V26.3105C10.666 22.8466 11.2687 18.2551 13.841 14.5432C16.3874 10.8686 20.9278 7.96484 29.0117 7.96484C37.0956 7.96484 41.636 10.8686 44.1824 14.5432C46.7547 18.2551 47.3574 22.8466 47.3574 26.3105V45.9503C44.5308 47.3391 38.2597 50.0586 29.0117 50.0586Z" fill="black" stroke="white" stroke-width="1.125"/>
<path d="M18.662 45.4023L18.662 45.4024L18.6713 45.4031C21.9127 45.6733 25.4451 45.9453 28.9824 45.9453C32.5198 45.9453 36.0522 45.6733 39.2936 45.4031L39.3074 45.402L39.3212 45.4001C47.7011 44.2828 53.8555 37.2942 53.8555 28.9057C53.8555 19.9575 46.5868 12.4062 37.3561 12.4062H20.6088C11.6544 12.4062 4.10938 19.9513 4.10938 28.9057C4.10938 37.2785 10.2518 44.5613 18.662 45.4023ZM19.331 38.8825L19.331 38.8823L19.3171 38.8808C14.4852 38.3722 10.6367 34.0345 10.6367 28.9057C10.6367 23.5439 15.247 18.9336 20.6088 18.9336H37.3561C42.7237 18.9336 47.3127 23.5434 47.0586 28.8789L47.058 28.8923V28.9057C47.058 34.0467 43.4686 38.3717 38.3806 38.8805L38.3721 38.8814L38.3638 38.8825C32.1994 39.6865 25.4954 39.6865 19.331 38.8825Z" fill="black" stroke="white" stroke-width="1.125"/>
<path d="M50.0586 42.5176V43.0801H50.6211H53.3223C54.2604 43.0801 55.086 42.7649 55.6784 42.1725C56.2708 41.5801 56.5859 40.7546 56.5859 39.8164V29.0117C56.5859 28.0735 56.2708 27.248 55.6784 26.6556C55.086 26.0632 54.2604 25.748 53.3223 25.748H50.6211H50.0586V26.3105V42.5176ZM7.40234 43.0801H7.96484V42.5176V26.3105V25.748H7.40234H4.70117C3.76299 25.748 2.93747 26.0632 2.34507 26.6556C1.75268 27.248 1.4375 28.0735 1.4375 29.0117V39.8164C1.4375 40.7546 1.75268 41.5801 2.34507 42.1725C2.93747 42.7649 3.76299 43.0801 4.70117 43.0801H7.40234Z" fill="black" stroke="white" stroke-width="1.125"/>
<path d="M51.1484 35.7969V35.2344H50.5859H42.1427C41.674 34.3424 40.7139 33.7812 39.7478 33.7812C38.2775 33.7812 37.0156 35.0527 37.0156 36.5234C37.0156 37.9941 38.2775 39.2656 39.7478 39.2656H50.5859H51.1484V38.7031V35.7969Z" fill="black" stroke="white" stroke-width="1.125"/>
<path d="M25.7269 30.9218L33.5673 36.5549C31.7898 37.5586 29.2057 37.4737 27.5662 36.2934L21.9959 32.293C21.47 31.9137 21.47 31.3011 21.9959 30.9218C23.0262 30.182 24.6966 30.182 25.7269 30.9218Z" fill="black"/>
<path d="M30.7761 37.7164C29.5079 37.7164 28.242 37.3653 27.2855 36.6774L21.7175 32.6746C21.3415 32.406 21.125 32.0149 21.125 31.6074C21.125 31.1998 21.3415 30.811 21.7175 30.5401C22.9191 29.6755 24.8037 29.6755 26.0077 30.5401L34.4453 36.6044L33.8052 36.9672C32.9129 37.4714 31.8469 37.7187 30.7809 37.7187L30.7761 37.7164ZM23.8614 30.8393C23.2832 30.8393 22.705 30.9948 22.2767 31.3034C22.1482 31.3953 22.0768 31.5037 22.0768 31.6074C22.0768 31.711 22.1482 31.8194 22.2767 31.9113L27.8446 35.9141C29.1248 36.8353 31.0641 37.0332 32.6321 36.4654L25.4485 31.3011C25.0178 30.9925 24.442 30.837 23.8638 30.837L23.8614 30.8393Z" fill="black"/>
<path d="M30.2907 21.8442L35.8611 25.847C36.3869 26.2263 36.3869 26.8389 35.8611 27.2182C34.8307 27.958 33.1604 27.958 32.13 27.2182L24.2897 21.5851C26.0671 20.5814 28.6512 20.6662 30.2907 21.8442Z" fill="black"/>
<path d="M33.9956 28.2478C33.2246 28.2478 32.4513 28.031 31.8517 27.5999L23.4141 21.5356L24.0541 21.1728C26.0053 20.0702 28.8083 20.1951 30.5715 21.4602L36.1419 25.463C36.5178 25.7339 36.7344 26.1227 36.7344 26.5303C36.7344 26.9378 36.5178 27.3266 36.1419 27.5975C35.5399 28.0287 34.7689 28.2454 33.998 28.2454L33.9956 28.2478ZM25.2248 21.6746L32.4085 26.8389C33.2675 27.4562 34.7189 27.4562 35.5803 26.8389C35.7088 26.747 35.7802 26.6386 35.7802 26.535C35.7802 26.4313 35.7088 26.3229 35.5803 26.231L30.01 22.2283C28.7298 21.3071 26.7905 21.1092 25.2225 21.677L25.2248 21.6746Z" fill="black"/>
<path d="M34.7618 35.2921L23.376 27.1098C21.7365 25.9319 21.6152 24.0754 23.0143 22.7984L34.4001 30.9807C36.0395 32.1587 36.1609 34.0152 34.7618 35.2921Z" fill="black"/>
<path d="M34.7974 35.9L23.0952 27.4915C22.172 26.8295 21.6342 25.9342 21.5771 24.9753C21.5224 24.0542 21.9174 23.1589 22.6907 22.4521L22.9786 22.1906L34.6785 30.599C35.6017 31.2611 36.1395 32.154 36.1966 33.1152C36.2513 34.0364 35.8563 34.9317 35.083 35.6384L34.7974 35.9ZM23.069 23.4204C22.6859 23.8751 22.4956 24.3958 22.5265 24.9188C22.567 25.5926 22.9667 26.2334 23.6544 26.7282L34.7046 34.6678C35.0877 34.2131 35.2781 33.6924 35.2472 33.1694C35.2067 32.4956 34.807 31.8548 34.1193 31.36L23.069 23.4204Z" fill="black"/>
</svg>
